<?xml version="1.0" encoding="UTF-8"?>
<!DOCTYPE svg PUBLIC "-//W3C//DTD SVG 1.1//EN" "http://www.w3.org/Graphics/SVG/1.1/DTD/svg11.dtd">
<!-- Creator: CorelDRAW X8 -->
<svg xmlns="http://www.w3.org/2000/svg" xml:space="preserve" width="2157px" height="1541px" version="1.1" style="shape-rendering:geometricPrecision; text-rendering:geometricPrecision; image-rendering:optimizeQuality; fill-rule:evenodd; clip-rule:evenodd"
viewBox="0 0 2186 1562"
 xmlns:xlink="http://www.w3.org/1999/xlink">
 <defs>
  <style type="text/css">
   <![CDATA[
    .fil1 {fill:#B3B3B3}
    .fil0 {fill:#EEEEEE}
    .fil2 {fill:#B3B3B3;fill-rule:nonzero}
   ]]>
  </style>
 </defs>
 <g id="Слой_x0020_1">
  <metadata id="CorelCorpID_0Corel-Layer"/>
  <rect class="fil0" width="2186" height="1562"/>
  <g id="_1848829219888">
   <path class="fil1" d="M782 452l21 0 0 -26c0,-7 6,-13 13,-13l94 0c7,0 13,6 13,13l0 26 22 0 18 -52c6,-18 19,-32 37,-32l83 0 21 0 83 0c19,0 32,14 38,32l18 52 162 0c23,0 42,19 42,43l0 380c0,23 -19,42 -42,42l-623 0c-24,0 -43,-19 -43,-42l0 -380c0,-24 19,-43 43,-43zm511 38l93 0c7,0 14,6 14,14l0 26c0,8 -7,15 -14,15l-93 0c-8,0 -14,-7 -14,-15l0 -26c0,-8 6,-14 14,-14zm-200 0c108,0 195,87 195,195 0,107 -87,194 -195,194 -107,0 -195,-87 -195,-194 0,-108 88,-195 195,-195zm0 56c77,0 139,62 139,139 0,76 -62,138 -139,138 -76,0 -138,-62 -138,-138 0,-77 62,-139 138,-139z"/>
   <path class="fil2" d="M578 1161l-23 0 0 -50 -35 0 0 50 -24 0 0 -117 24 0 0 47 35 0 0 -47 23 0 0 117zm53 1c-12,0 -21,-3 -27,-10 -7,-7 -10,-17 -10,-30l0 -7c0,-13 3,-24 9,-31 6,-8 14,-12 26,-12 11,0 19,4 24,11 6,7 9,17 9,31l0 11 -45 0c0,6 1,11 4,14 2,3 6,5 11,5 8,0 14,-3 19,-8l9 13c-3,4 -7,7 -12,10 -5,2 -11,3 -17,3zm-14 -53l22 0 0 -2c0,-5 -1,-9 -2,-12 -2,-2 -5,-4 -9,-4 -3,0 -6,2 -8,4 -2,3 -3,8 -3,14zm119 -16l-22 0 0 68 -23 0 0 -68 -22 0 0 -19 67 0 0 19zm93 -19l22 0 0 87 -22 0 0 -54 -21 54 -22 0 0 -87 22 0 0 53 21 -53zm76 26c0,-7 -3,-10 -8,-10 -2,0 -4,1 -6,2 -1,2 -2,4 -2,7l-23 0c0,-8 3,-14 9,-19 5,-5 12,-8 21,-8 10,0 17,3 23,7 5,4 8,11 8,19 0,4 -1,7 -3,10 -2,4 -4,6 -8,8 8,4 12,10 12,20 0,8 -2,14 -8,19 -6,5 -14,7 -24,7 -9,0 -16,-2 -22,-7 -6,-5 -9,-12 -9,-20l23 0c0,3 1,6 2,7 2,2 4,3 7,3 3,0 5,-1 7,-3 1,-2 2,-4 2,-8 0,-6 -3,-10 -8,-10l-11 0 0 -15 10 0c5,0 8,-3 8,-9zm34 15c0,-14 3,-24 10,-31 6,-8 14,-12 25,-12 11,0 20,4 26,12 6,7 10,18 10,31l0 5c0,13 -4,24 -10,31 -6,8 -14,11 -25,11 -12,0 -20,-3 -26,-11 -7,-7 -10,-18 -10,-31l0 -5zm23 5c0,16 4,24 13,24 7,0 11,-7 12,-20l0 -9c0,-8 -1,-14 -3,-18 -3,-4 -6,-6 -10,-6 -3,0 -6,2 -9,6 -2,4 -3,10 -3,18l0 5zm100 -41c9,0 16,4 22,11 5,7 8,17 8,30l0 1c0,13 -3,23 -9,30 -7,8 -15,11 -26,11 -11,0 -19,-4 -25,-12 -7,-8 -10,-19 -10,-33l0 -4c0,-19 3,-34 9,-46 5,-11 13,-18 24,-21 6,-1 9,-3 10,-4 2,-2 3,-4 3,-6l18 0c0,8 -2,15 -6,19 -4,4 -11,7 -21,10 -5,1 -9,4 -12,7 -3,4 -5,10 -6,17 6,-7 13,-10 21,-10zm-5 19c-8,0 -12,6 -12,20l0 3c0,8 1,14 3,17 2,4 5,6 9,6 8,0 12,-7 12,-21l0 -4c0,-14 -4,-21 -12,-21zm115 22c0,14 -2,24 -7,31 -5,8 -12,11 -21,11 -7,0 -13,-3 -17,-8l0 40 -23 0 0 -120 21 0 1 8c5,-6 10,-10 18,-10 9,0 16,4 21,11 5,6 7,17 7,30l0 7zm-23 -6c0,-8 -1,-14 -2,-18 -2,-3 -5,-5 -10,-5 -4,0 -8,2 -10,6l0 41c2,4 6,6 10,6 5,0 8,-2 10,-6 2,-4 2,-10 2,-18l0 -6zm78 47c-1,-2 -1,-4 -2,-7 -4,6 -10,8 -17,8 -7,0 -13,-2 -18,-7 -4,-5 -7,-11 -7,-19 0,-9 3,-16 9,-21 6,-5 14,-7 25,-7l7 0 0 -7c0,-4 -1,-7 -2,-8 -1,-2 -3,-3 -6,-3 -6,0 -8,3 -8,10l-23 0c0,-8 3,-15 9,-20 6,-5 13,-8 23,-8 9,0 17,3 22,8 5,5 8,12 8,21l0 41c0,7 1,13 3,17l0 2 -23 0zm-13 -16c2,0 4,-1 6,-2 2,-1 3,-2 4,-4l0 -18 -6 0c-3,0 -6,2 -9,4 -2,3 -3,6 -3,10 0,6 3,10 8,10zm122 -16l-8 0 0 32 -23 0 0 -32 -7 0 -12 32 -27 0 21 -47 -21 -40 28 0 12 32 6 0 0 -32 23 0 0 32 6 0 13 -32 28 0 -21 39 21 48 -28 0 -11 -32zm84 33c-12,0 -21,-3 -27,-10 -7,-7 -10,-17 -10,-30l0 -7c0,-13 3,-24 9,-31 6,-8 14,-12 26,-12 10,0 19,4 24,11 6,7 8,17 9,31l0 11 -46 0c1,6 2,11 5,14 2,3 6,5 11,5 8,0 14,-3 19,-8l9 13c-3,4 -7,7 -12,10 -5,2 -11,3 -17,3zm-14 -53l22 0 0 -2c0,-5 -1,-9 -2,-12 -2,-2 -5,-4 -9,-4 -4,0 -6,2 -8,4 -2,3 -3,8 -3,14zm123 52l-23 0 0 -34 -20 0 0 34 -23 0 0 -87 23 0 0 35 20 0 0 -35 23 0 0 87zm59 -87l23 0 0 87 -23 0 0 -54 -20 54 -23 0 0 -87 23 0 0 53 20 -53zm102 0l0 87 -23 0 0 -30 -8 0 -14 30 -23 0 16 -34c-4,-3 -8,-6 -10,-10 -2,-4 -4,-9 -4,-14 0,-8 3,-15 9,-21 6,-5 14,-8 24,-8l33 0zm-43 30c0,3 1,5 3,8 2,2 4,3 7,3l10 0 0 -22 -10 0c-3,0 -5,1 -7,3 -2,2 -3,5 -3,8z"/>
  </g>
 </g>
</svg>
