<?xml version="1.0" encoding="UTF-8"?>
<!DOCTYPE svg PUBLIC "-//W3C//DTD SVG 1.1//EN" "http://www.w3.org/Graphics/SVG/1.1/DTD/svg11.dtd">
<!-- Creator: CorelDRAW X8 -->
<svg xmlns="http://www.w3.org/2000/svg" xml:space="preserve" width="582px" height="582px" version="1.1" style="shape-rendering:geometricPrecision; text-rendering:geometricPrecision; image-rendering:optimizeQuality; fill-rule:evenodd; clip-rule:evenodd"
viewBox="0 0 105 105"
 xmlns:xlink="http://www.w3.org/1999/xlink">
 <defs>
  <style type="text/css">
   <![CDATA[
    .fil0 {fill:white}
   ]]>
  </style>
 </defs>
 <g id="Слой_x0020_1">
  <metadata id="CorelCorpID_0Corel-Layer"/>
  <path class="fil0" d="M83 63l-2 2c0,0 0,0 0,0l-1 1c-1,1 -2,2 -3,3l-1 1c-1,1 -1,1 -2,2 0,0 0,1 -1,1l-1 1c0,0 0,0 0,0 0,1 -1,1 -2,2 0,0 -1,1 -1,1 -1,1 -1,1 -1,1 0,0 0,0 0,0 0,0 0,0 0,0l-4 4c0,0 -1,1 -1,1 -1,0 -1,0 -2,0 -1,0 -3,0 -4,0 -1,1 -2,1 -3,2l-1 0c0,1 0,1 0,1 -1,0 -1,0 -1,0 -2,2 -3,6 -3,9 0,0 1,2 1,2 0,0 1,0 1,0 0,0 0,-1 0,-1l1 -1c1,-1 2,-2 3,-3 0,0 1,0 1,0 1,-1 1,-2 3,-2 1,0 2,0 3,1 0,0 1,0 1,1 0,0 0,0 0,0 1,1 1,2 1,3 0,2 -1,3 -2,4 -1,0 -1,1 -2,1l-1 2c-1,0 -2,2 -2,2 0,0 1,0 1,0 1,1 1,1 2,1 2,0 4,-1 6,-2 0,0 1,-1 2,-1 2,-2 4,-6 3,-9 0,-1 0,-1 0,-2l3 -3c0,0 1,-1 1,-1l7 -7c0,0 1,-1 2,-2 0,0 2,-2 3,-3 0,0 0,0 0,0 1,-1 2,-2 3,-3l1 -1c1,0 1,0 2,0 2,1 5,0 7,-2 0,0 0,0 0,0l1 -1c1,0 2,-2 2,-2 1,-1 1,-2 2,-3 0,-1 0,-2 0,-3 0,-1 -1,-3 -1,-3 0,0 -1,1 -1,1 0,0 0,0 -1,0 0,0 0,0 0,0l-2 2c0,1 -1,1 -1,1l-1 1c0,1 -1,2 -3,2 -1,0 -1,0 -2,0 0,0 -1,0 -1,-1l-1 0c0,-1 0,-1 -1,-2 0,0 0,-1 0,-2 0,-2 1,-2 2,-3l3 -4c1,0 1,0 1,0 0,-1 1,-2 1,-2 -1,-1 -4,-1 -6,0 -2,0 -3,1 -5,2 0,0 0,1 -1,1 -2,2 -3,6 -2,9 0,0 0,1 0,1zm-15 3l-19 0 -19 0c0,1 0,3 0,4 0,1 0,2 0,3 -1,0 -1,0 -2,0 -1,0 -3,0 -4,0 -1,0 -4,1 -4,-1 0,-2 0,-5 0,-7 0,-1 0,-1 -1,-2 0,-1 0,-2 0,-3 0,-3 0,-7 0,-9 0,-2 1,-4 1,-5 0,-1 0,-3 0,-3 -1,-1 -3,-2 -3,-2 0,0 -1,0 -1,-1 0,-1 0,-2 1,-2 1,0 2,0 3,0 1,0 1,0 1,0 0,0 0,0 1,0 0,0 1,-2 1,-2 0,-1 0,-1 0,-1 1,-2 1,-2 2,-3 0,-1 0,-1 1,-1 0,-1 0,-2 1,-2 1,-1 1,-1 1,-2 1,-1 3,-2 5,-2 1,0 9,0 16,0 8,0 16,0 17,0 1,0 3,1 4,2 1,1 1,1 2,2 0,0 1,1 1,2 0,0 0,0 1,1 0,1 0,1 1,3 0,0 0,0 1,1 0,0 0,2 1,2 0,0 0,0 0,0 0,0 1,0 1,0 1,0 2,0 3,0 1,0 1,1 1,2 0,1 0,1 0,1 -1,0 -3,1 -3,2 -1,0 -1,2 0,3 0,1 0,3 0,5 1,2 1,6 1,9 0,1 0,1 0,2l-11 11c0,0 0,0 0,0 -1,-1 -1,-2 -1,-3 0,-1 0,-3 0,-4zm-19 -66c27,0 48,21 49,47 0,0 0,0 -1,-1 -1,0 -3,0 -5,0 0,0 -1,0 -1,0 -2,-22 -20,-39 -42,-39 -23,0 -42,19 -42,42 0,22 17,40 39,42 -1,2 -1,5 0,7 -26,-1 -46,-23 -46,-49 0,-27 22,-49 49,-49zm0 41l24 0c0,0 1,0 1,-1 0,-1 0,-2 -1,-3 0,-1 0,-2 -1,-3 -1,-2 -1,-2 -3,-4 0,-1 -1,-2 -2,-2 -1,0 -3,0 -4,0l-14 0 -13 0c-1,0 -3,0 -4,0 -1,0 -2,1 -3,2 -1,2 -2,2 -3,4 0,1 -1,2 -1,3 0,1 -1,2 0,3 0,1 0,1 1,1l23 0zm-9 12c0,-1 -1,-4 -1,-5 0,0 -1,0 -2,0l-11 0c-1,0 -1,0 -2,-1 0,1 1,4 1,5 0,1 1,1 2,1 1,0 12,0 13,0zm19 0c0,-1 0,-4 0,-5 1,0 2,0 3,0l10 0c1,0 1,0 2,-1 0,1 0,4 0,5 -1,1 -1,1 -2,1 -2,0 -13,0 -13,0z"/>
 </g>
</svg>
