<?xml version="1.0" encoding="UTF-8"?>
<!DOCTYPE svg PUBLIC "-//W3C//DTD SVG 1.1//EN" "http://www.w3.org/Graphics/SVG/1.1/DTD/svg11.dtd">
<!-- Creator: CorelDRAW X8 -->
<svg xmlns="http://www.w3.org/2000/svg" xml:space="preserve" width="1885px" height="1886px" version="1.1" style="shape-rendering:geometricPrecision; text-rendering:geometricPrecision; image-rendering:optimizeQuality; fill-rule:evenodd; clip-rule:evenodd"
viewBox="0 0 1876 1876"
 xmlns:xlink="http://www.w3.org/1999/xlink">
 <defs>
  <style type="text/css">
   <![CDATA[
    .fil0 {fill:white}
   ]]>
  </style>
 </defs>
 <g id="Слой_x0020_1">
  <metadata id="CorelCorpID_0Corel-Layer"/>
  <path class="fil0" d="M881 0c474,0 860,373 881,841 -7,-4 -15,-7 -22,-10 -30,-11 -62,-14 -92,-9 -6,1 -13,2 -19,4 -29,-388 -353,-694 -748,-694 -413,0 -749,336 -749,749 0,392 301,714 684,747 -11,40 -8,92 12,133 -462,-27 -828,-411 -828,-880 0,-486 395,-881 881,-881zm609 1125l-40 39c-2,3 -4,4 -6,6l-17 17c-17,18 -35,34 -51,52l-18 16c-9,10 -18,21 -28,29 -9,8 -14,15 -23,23l-11 11c-2,2 -4,4 -6,6 -9,10 -19,19 -28,29 -11,11 -23,22 -34,34 -2,2 -4,3 -6,5 -2,2 -4,4 -6,6 -2,2 -3,3 -5,5l-57 58c-7,7 -25,23 -29,29 -9,-2 -17,-5 -27,-7 -28,-5 -59,0 -85,9 -16,5 -31,13 -43,22l-19 14c-3,3 -5,5 -9,8 -4,4 -4,5 -8,9 -34,34 -58,93 -52,146 2,13 9,45 17,50 2,0 11,-9 13,-11 2,-2 3,-4 6,-7l18 -18c15,-16 39,-37 54,-54 3,-3 4,-4 7,-6 15,-15 28,-34 58,-39 21,-3 40,4 55,17 6,5 12,12 18,18 3,2 5,4 7,6 13,14 19,34 16,54 -4,31 -28,49 -44,65 -10,10 -20,22 -30,31l-25 24c-6,7 -35,33 -35,38 3,4 16,8 23,10 9,3 18,5 28,6 37,4 74,-6 105,-23 14,-8 28,-18 38,-27 45,-41 73,-105 63,-166 -2,-10 -4,-17 -7,-26l51 -51c9,-10 20,-19 29,-29l120 -120c9,-10 20,-19 29,-29 12,-14 40,-41 56,-56 2,-3 4,-4 6,-6 18,-20 38,-38 57,-57l18 -18c9,2 16,5 26,7 45,7 92,-7 129,-31 3,-3 6,-4 9,-7l18 -15c10,-8 29,-34 36,-47 8,-14 15,-31 19,-48 5,-19 7,-41 5,-61 -2,-12 -10,-44 -16,-49 -4,0 -16,14 -19,17 -2,2 -4,4 -6,6 -2,2 -4,4 -6,6l-36 36c-6,6 -12,13 -19,18l-12 13c-16,15 -28,34 -58,39 -15,2 -28,0 -41,-6 -5,-3 -10,-6 -14,-10l-13 -12c-8,-10 -15,-14 -22,-26 -6,-11 -9,-26 -7,-41 4,-31 24,-44 38,-60l61 -60c4,-5 8,-8 12,-12 5,-6 23,-21 23,-27 -29,-17 -75,-20 -110,-10 -32,8 -62,24 -85,46 -5,5 -10,10 -15,16 -39,43 -58,105 -44,163 1,4 3,9 4,13zm-269 65l-340 0 -340 0c-1,18 0,39 0,57 0,16 3,40 -5,51 -10,14 -22,14 -43,14 -19,0 -37,0 -56,0 -31,0 -82,10 -84,-29 -1,-24 0,-85 0,-113 0,-23 0,-29 -8,-48 -8,-18 -10,-25 -11,-47 0,-47 -1,-118 7,-163 6,-31 12,-66 16,-97 1,-13 7,-42 -1,-51 -11,-12 -47,-25 -54,-31 -6,-5 -8,-8 -9,-19 0,-14 -2,-38 18,-39 16,-1 37,0 55,0 4,0 10,0 14,1 4,2 4,4 10,2 9,-4 16,-29 19,-38 3,-6 6,-12 9,-19 14,-34 16,-32 29,-55 3,-7 6,-12 10,-18 7,-13 14,-24 23,-34 15,-19 14,-16 27,-30 18,-19 49,-34 78,-34 21,0 158,0 296,0 139,0 276,0 297,0 29,0 60,15 78,34 13,14 12,11 27,30 8,10 16,21 23,34 4,6 7,11 10,18 13,23 15,21 29,55 3,7 6,13 9,19 3,9 10,34 19,38 6,2 6,0 10,-2 4,-1 9,-1 14,-1 17,0 38,-1 55,0 20,1 18,25 18,39 -1,11 -3,14 -9,19 -7,6 -44,19 -54,31 -8,9 -2,38 -1,51 4,31 9,66 15,97 9,45 8,116 7,163 0,13 0,21 -3,29l-196 197c-1,-1 -2,-2 -2,-3 -8,-11 -5,-35 -5,-51 0,-18 1,-39 -1,-57zm-340 -452l421 0c8,-1 15,-10 18,-17 7,-17 -2,-41 -7,-57 -6,-18 -14,-33 -21,-50 -18,-44 -22,-48 -55,-84 -10,-10 -24,-20 -45,-24 -15,-3 -51,-1 -69,-1l-242 0 -241 0c-18,0 -54,-2 -69,1 -21,4 -35,14 -45,24 -33,36 -37,40 -56,84 -7,17 -14,32 -20,50 -5,16 -14,40 -7,57 3,7 10,16 18,17l420 0zm-165 204c0,-13 -9,-70 -15,-78 -9,-11 -23,-8 -39,-8l-189 0c-21,0 -25,-5 -39,-9 1,20 7,64 13,81 5,14 15,14 32,14 25,0 226,1 237,0zm331 0c0,-13 9,-70 15,-78 9,-11 23,-8 39,-8l189 0c21,0 24,-5 39,-9 -1,20 -7,64 -13,81 -5,14 -15,14 -32,14 -26,0 -226,1 -237,0z"/>
 </g>
</svg>
