<?xml version="1.0" encoding="UTF-8"?>
<!DOCTYPE svg PUBLIC "-//W3C//DTD SVG 1.1//EN" "http://www.w3.org/Graphics/SVG/1.1/DTD/svg11.dtd">
<!-- Creator: CorelDRAW X7 -->
<svg xmlns="http://www.w3.org/2000/svg" xml:space="preserve" width="2924px" height="601px" version="1.1" style="shape-rendering:geometricPrecision; text-rendering:geometricPrecision; image-rendering:optimizeQuality; fill-rule:evenodd; clip-rule:evenodd"
viewBox="0 0 2715 558"
 xmlns:xlink="http://www.w3.org/1999/xlink">
 <defs>
  <style type="text/css">
   <![CDATA[
    .fil1 {fill:#314557}
    .fil2 {fill:#FEFEFE;fill-rule:nonzero}
    .fil0 {fill:url(#id0)}
   ]]>
  </style>
  <linearGradient id="id0" gradientUnits="userSpaceOnUse" x1="582.582" y1="420.774" x2="2713.39" y2="420.774">
   <stop offset="0" style="stop-opacity:1; stop-color:#0079BF"/>
   <stop offset="0.501961" style="stop-opacity:1; stop-color:#0095D8"/>
   <stop offset="1" style="stop-opacity:1; stop-color:#00B1E5"/>
  </linearGradient>
 </defs>
 <g id="Слой_x0020_1">
  <metadata id="CorelCorpID_0Corel-Layer"/>
  <rect class="fil0" x="583" y="315" width="2131" height="212"/>
  <path class="fil1" d="M715 224l-75 0 -14 46 -43 0 73 -213 44 0 72 213 -43 0 -14 -46zm-64 -33l53 0 -26 -84 -1 0 -26 84zm214 22l2 12 1 0 3 -12 46 -156 45 0 -72 213 -44 0 -72 -213 44 0 47 156zm265 -123l-60 0 0 180 -43 0 0 -180 -60 0 0 -33 163 0 0 33zm190 92c0,26 -8,48 -25,65 -16,17 -38,26 -64,26 -26,0 -48,-9 -64,-26 -16,-17 -25,-39 -25,-65l0 -38c0,-26 8,-47 25,-65 16,-17 37,-25 64,-25 26,0 48,8 64,25 17,18 25,39 25,65l0 38zm-43 -38c0,-17 -4,-31 -12,-41 -8,-11 -20,-16 -34,-16 -15,0 -26,5 -34,16 -8,10 -12,24 -12,41l0 38c0,17 4,31 12,42 8,10 19,16 34,16 14,0 26,-6 34,-16 8,-11 12,-25 12,-42l0 -38zm119 41l0 85 -43 0 0 -213 81 0c24,0 43,5 56,16 14,11 21,27 21,47 0,11 -3,20 -9,28 -5,8 -14,14 -25,19 13,4 22,10 27,19 6,8 8,19 8,32l0 16c0,5 1,12 3,18 1,7 4,11 8,15l0 3 -44 0c-4,-3 -6,-9 -7,-16 -2,-7 -2,-14 -2,-21l0 -15c0,-10 -3,-19 -9,-25 -6,-5 -14,-8 -24,-8l-41 0zm0 -33l37 0c12,0 21,-3 27,-8 5,-5 8,-12 8,-22 0,-10 -3,-18 -8,-24 -6,-5 -15,-8 -26,-8l-38 0 0 62zm286 24l-88 0 0 61 103 0 0 33 -146 0 0 -213 146 0 0 33 -103 0 0 53 88 0 0 33zm97 -119l54 157 1 0 54 -157 56 0 0 213 -42 0 0 -64 4 -94 -1 0 -57 158 -29 0 -56 -157 -1 0 4 93 0 64 -43 0 0 -213 56 0zm249 213l-43 0 0 -38 43 0 0 38zm89 0l-43 0 0 -213 43 0 0 213zm214 0l-42 0 -86 -146 -1 0 0 146 -43 0 0 -213 43 0 86 145 1 0 0 -145 42 0 0 213zm172 -89l-89 0 0 89 -43 0 0 -213 147 0 0 33 -104 0 0 58 89 0 0 33zm212 1c0,26 -8,48 -25,65 -16,17 -38,26 -64,26 -26,0 -48,-9 -64,-26 -16,-17 -25,-39 -25,-65l0 -38c0,-26 9,-47 25,-65 16,-17 37,-25 64,-25 26,0 48,8 64,25 17,18 25,39 25,65l0 38zm-43 -38c0,-17 -4,-31 -12,-41 -8,-11 -20,-16 -34,-16 -15,0 -26,5 -34,16 -8,10 -12,24 -12,41l0 38c0,17 4,31 12,42 8,10 19,16 34,16 14,0 26,-6 34,-16 8,-11 12,-25 12,-42l0 -38z"/>
  <path class="fil1" d="M443 335l-12 12c0,0 -1,1 -1,1l-5 5c-5,6 -11,10 -16,16l-5 5c-2,2 -5,6 -8,8 -3,3 -4,5 -7,7l-3 3c-1,1 -1,1 -2,2 -3,3 -6,6 -9,9 -3,3 -6,6 -10,10 0,0 -1,1 -1,1 -1,1 -1,1 -2,2 -1,1 -1,1 -2,2l-17 17c-2,2 -7,7 -8,8 -3,0 -5,-1 -8,-2 -9,-1 -18,0 -25,3 -5,2 -10,4 -13,6l-6 5c-1,1 -2,1 -3,2 -1,1 -1,2 -2,3 -10,10 -17,28 -15,43 0,4 2,14 5,15 0,0 3,-3 3,-3 1,-1 1,-1 2,-2l6 -5c4,-5 11,-12 16,-17 0,-1 1,-1 2,-2 4,-4 8,-10 17,-11 6,-1 12,1 16,5 2,2 4,4 6,5 0,1 1,2 2,2 4,4 5,10 5,16 -2,9 -9,15 -14,20 -3,3 -5,6 -9,9l-7 7c-2,2 -10,10 -10,11 0,1 5,3 6,3 3,1 6,2 9,2 11,1 22,-2 31,-7 4,-2 8,-5 12,-8 13,-12 21,-31 18,-49 0,-3 -1,-5 -2,-8l15 -15c3,-3 6,-6 9,-9l36 -36c2,-2 5,-5 8,-8 4,-4 12,-12 17,-17 1,-1 1,-1 2,-2 5,-6 11,-11 17,-17l5 -5c3,1 5,2 8,2 13,2 27,-2 38,-9 1,-1 2,-1 3,-2l5 -5c3,-2 9,-10 11,-14 2,-4 4,-9 6,-14 1,-6 2,-12 1,-18 -1,-4 -3,-13 -5,-15 -1,0 -5,5 -5,5 -1,1 -2,2 -2,2 -1,1 -1,1 -2,2l-11 11c-2,2 -3,4 -5,5l-4 4c-5,4 -8,10 -17,11 -5,1 -9,1 -12,-1 -2,-1 -3,-2 -5,-3l-3 -4c-3,-3 -5,-4 -7,-8 -2,-3 -3,-7 -2,-12 1,-9 7,-13 11,-17l18 -19c2,-1 3,-2 4,-3 1,-2 7,-6 7,-8 -9,-5 -22,-6 -33,-3 -9,2 -18,7 -25,14 -2,1 -3,3 -5,4 -11,13 -17,32 -13,49 1,1 1,2 1,4zm-80 19l-101 0 -101 0c0,5 0,12 0,17 0,5 1,12 -1,15 -3,5 -7,5 -13,5 -6,0 -11,0 -17,0 -9,0 -24,2 -25,-9 0,-7 0,-25 0,-34 0,-7 0,-8 -2,-14 -3,-5 -3,-8 -3,-14 -1,-14 -1,-35 2,-49 1,-9 3,-19 4,-29 1,-3 2,-12 0,-14 -3,-4 -14,-8 -16,-10 -2,-1 -3,-2 -3,-5 0,-5 0,-12 5,-12 5,0 12,0 17,0 1,0 3,0 4,0 1,1 1,1 3,1 3,-1 5,-9 6,-11 1,-2 1,-4 2,-6 5,-10 5,-10 9,-17 1,-2 2,-3 3,-5 2,-4 4,-7 7,-10 4,-6 4,-5 8,-9 5,-6 15,-10 23,-10 6,0 47,0 88,0 42,0 82,0 88,0 9,0 19,4 24,10 4,4 3,3 8,9 2,3 5,6 7,10 1,2 2,3 3,5 3,7 4,7 8,17 1,2 2,4 3,6 1,2 3,10 6,11 1,0 1,0 3,-1 1,0 2,0 4,0 5,0 11,0 16,0 6,0 5,7 5,12 0,3 0,4 -2,5 -2,2 -13,6 -16,10 -3,2 -1,11 -1,14 2,10 3,20 5,29 3,14 2,35 2,49 0,4 0,6 -1,9l-58 58c-1,0 -1,0 -1,-1 -2,-3 -1,-10 -1,-15 0,-5 0,-12 -1,-17zm-101 -354c141,0 256,111 262,250 -2,-1 -4,-2 -6,-3 -9,-3 -19,-4 -27,-2 -2,0 -4,0 -6,1 -9,-116 -105,-207 -223,-207 -123,0 -223,100 -223,223 0,117 90,213 204,222 -3,12 -3,28 3,40 -137,-8 -246,-122 -246,-262 0,-145 117,-262 262,-262zm0 220l125 0c3,-1 5,-3 6,-5 2,-6 -1,-13 -2,-17 -2,-6 -4,-10 -6,-15 -6,-14 -7,-15 -17,-25 -3,-3 -7,-6 -13,-8 -5,0 -16,0 -21,0l-72 0 -72 0c-5,0 -16,0 -20,0 -6,2 -11,5 -14,8 -9,10 -10,11 -16,25 -2,5 -4,9 -6,15 -2,4 -4,11 -2,17 1,2 3,4 5,5l125 0zm-49 60c0,-4 -3,-20 -5,-23 -2,-3 -6,-2 -11,-2l-56 0c-7,0 -8,-2 -12,-3 1,6 2,19 4,24 2,4 5,4 10,4 7,0 67,1 70,0zm99 0c0,-4 2,-20 4,-23 3,-3 7,-2 12,-2l56 0c6,0 7,-2 12,-3 -1,6 -3,19 -4,24 -2,4 -5,4 -10,4 -7,0 -67,1 -70,0z"/>
  <path class="fil2" d="M731 446l3 -5c4,-5 6,-13 6,-23l1 -28 37 0 0 56 7 0 0 28 -10 0 0 -19 -38 0 0 19 -10 0 0 -28 4 0zm12 0l24 0 0 -46 -15 0 -1 16c-1,13 -3,23 -8,30zm101 -56l0 65 -11 0 0 -56 -17 0 -1 22c-1,12 -2,21 -5,26 -3,5 -7,8 -13,8l-4 0 0 -10 3 0c3,0 5,-2 6,-6 1,-4 2,-11 3,-21l1 -28 38 0zm59 0l0 65 -10 0 0 -25 -13 0 -13 25 -12 0 15 -27c-4,-2 -7,-4 -9,-7 -1,-3 -2,-7 -2,-11 0,-6 2,-11 5,-15 4,-3 10,-5 16,-5l23 0zm-34 20c0,3 1,6 3,8 2,1 4,2 7,2l14 0 0 -21 -13 0c-3,0 -6,1 -8,3 -2,2 -3,5 -3,8zm113 45c0,-1 -1,-4 -1,-7 -4,6 -9,8 -14,8 -6,0 -11,-1 -14,-5 -4,-3 -5,-8 -5,-14 0,-6 2,-12 6,-16 5,-3 11,-5 19,-5l8 0 0 -7c0,-4 -1,-7 -3,-9 -1,-1 -4,-2 -8,-2 -3,0 -5,1 -7,3 -3,1 -4,4 -4,7l-10 0c0,-3 1,-7 3,-10 2,-3 4,-5 8,-7 3,-2 7,-2 11,-2 7,0 12,1 15,5 4,3 5,8 6,14l0 33c0,5 0,9 2,13l0 1 -12 0zm-14 -8c3,0 5,-1 8,-2 2,-2 4,-4 5,-6l0 -16 -6 0c-5,1 -9,2 -12,4 -3,2 -5,5 -5,9 0,4 1,7 3,8 1,2 4,3 7,3zm41 8l0 -65 22 0c7,0 13,1 17,4 4,3 6,8 6,14 0,3 -1,5 -2,8 -2,2 -4,4 -7,5 3,1 6,3 8,6 2,2 3,6 3,10 0,6 -2,10 -6,13 -3,4 -9,5 -16,5l-25 0zm11 -29l0 20 14 0c8,0 11,-3 11,-10 0,-6 -3,-10 -11,-10l-14 0zm0 -9l11 0c8,0 12,-3 12,-9 0,-6 -4,-9 -11,-9l-12 0 0 18zm91 -18l-18 0 0 56 -10 0 0 -56 -18 0 0 -9 46 0 0 9zm6 20c0,-9 3,-17 7,-22 5,-6 11,-8 19,-8 7,0 13,2 18,8 5,5 7,12 7,22l0 7c0,9 -2,17 -7,22 -4,6 -11,8 -18,8 -8,0 -14,-2 -18,-8 -5,-5 -7,-12 -8,-21l0 -8zm11 7c0,6 2,12 4,15 3,4 6,6 11,6 9,0 14,-7 14,-20l0 -8c0,-6 -1,-12 -4,-15 -2,-4 -6,-6 -10,-6 -5,0 -8,2 -11,6 -2,3 -4,9 -4,15l0 7zm99 -36l0 65 -11 0 0 -56 -17 0 -1 22c0,12 -2,21 -5,26 -3,5 -7,8 -13,8l-4 0 0 -10 3 0c3,0 5,-2 6,-6 2,-4 2,-11 3,-21l1 -28 38 0zm29 27l12 0c1,-8 3,-15 8,-21 4,-5 10,-7 17,-7 7,0 13,2 18,8 4,6 7,13 7,22l0 4c0,10 -2,18 -7,24 -4,6 -11,9 -18,9 -7,0 -13,-2 -18,-8 -4,-5 -7,-13 -7,-21l-12 0 0 28 -11 0 0 -65 11 0 0 27zm22 6c0,7 2,13 4,18 3,4 6,6 11,6 4,0 8,-2 10,-6 3,-5 4,-11 4,-19 0,-8 -1,-13 -4,-18 -2,-4 -6,-6 -10,-6 -5,0 -8,2 -11,6 -2,5 -4,11 -4,19zm78 -30c7,0 13,3 17,9 4,5 6,12 6,22l0 0c0,10 -2,18 -7,24 -4,5 -10,8 -18,8 -7,0 -13,-3 -18,-8 -4,-6 -6,-14 -6,-24l0 -5c0,-14 2,-25 6,-33 4,-8 10,-13 18,-15 5,-1 8,-2 10,-4 2,-1 3,-3 3,-6l8 0 0 3c0,8 -4,13 -11,15l-8 2c-5,1 -9,4 -12,8 -3,3 -5,8 -5,14 4,-6 10,-10 17,-10zm-2 10c-4,0 -8,1 -10,5 -2,4 -4,9 -4,17 0,7 2,12 4,16 2,4 6,6 10,6 5,0 8,-2 10,-6 3,-4 4,-10 4,-18 0,-6 -1,-11 -4,-15 -2,-4 -6,-5 -10,-5zm72 -13l10 0 0 65 -10 0 0 -48 -24 48 -11 0 0 -65 11 0 0 47 24 -47zm69 9l-18 0 0 56 -11 0 0 -56 -17 0 0 -9 46 0 0 9zm30 57c-9,0 -15,-2 -19,-7 -5,-5 -7,-12 -7,-21l0 -8c0,-10 2,-18 6,-23 5,-6 11,-8 18,-8 8,0 14,2 17,7 4,5 6,12 6,23l0 7 -36 0 0 1c0,7 1,12 4,15 2,4 6,5 11,5 3,0 6,0 8,-2 3,-1 5,-3 7,-5l6 7c-5,6 -12,9 -21,9zm-2 -58c-4,0 -7,1 -10,4 -2,3 -3,8 -3,15l26 0 0 -2c-1,-6 -2,-11 -4,-13 -2,-3 -5,-4 -9,-4zm82 -8l0 65 -10 0 0 -56 -18 0 -1 22c0,12 -2,21 -5,26 -2,5 -7,8 -13,8l-3 0 0 -10 2 0c3,0 5,-2 7,-6 1,-4 2,-11 2,-21l1 -28 38 0zm41 66c-9,0 -15,-2 -19,-7 -4,-5 -7,-12 -7,-21l0 -8c0,-10 2,-18 7,-23 4,-6 10,-8 17,-8 8,0 14,2 18,7 3,5 5,12 5,23l0 7 -36 0 0 1c0,7 1,12 4,15 2,4 6,5 11,5 3,0 6,0 9,-2 2,-1 4,-3 6,-5l6 7c-5,6 -12,9 -21,9zm-2 -58c-4,0 -7,1 -9,4 -3,3 -4,8 -4,15l26 0 0 -2c-1,-6 -2,-11 -4,-13 -2,-3 -5,-4 -9,-4zm72 -8l10 0 0 65 -10 0 0 -48 -24 48 -11 0 0 -65 11 0 0 47 24 -47zm6 -24c0,5 -2,9 -5,12 -3,3 -8,4 -13,4 -6,0 -10,-1 -13,-4 -4,-3 -5,-7 -5,-12l9 0c0,3 0,5 2,6 2,2 4,3 7,3 3,0 5,-1 6,-3 2,-1 3,-3 3,-6l9 0zm85 24l11 0 0 65 -11 0 0 -48 -24 48 -10 0 0 -65 10 0 0 47 24 -47zm90 65c-1,-1 -1,-4 -2,-7 -4,6 -8,8 -14,8 -6,0 -11,-1 -14,-5 -3,-3 -5,-8 -5,-14 0,-6 2,-12 7,-16 4,-3 10,-5 18,-5l8 0 0 -7c0,-4 -1,-7 -3,-9 -1,-1 -4,-2 -7,-2 -4,0 -6,1 -8,3 -2,1 -3,4 -3,7l-11 0c0,-3 1,-7 3,-10 2,-3 5,-5 8,-7 3,-2 7,-2 11,-2 7,0 12,1 15,5 4,3 6,8 6,14l0 33c0,5 0,9 2,13l0 1 -11 0zm-15 -8c3,0 6,-1 8,-2 2,-2 4,-4 5,-6l0 -16 -6 0c-5,1 -9,2 -12,4 -3,2 -4,5 -4,9 0,4 0,7 2,8 1,2 4,3 7,3zm41 8l0 -65 22 0c8,0 13,1 17,4 4,3 6,8 6,14 0,3 -1,5 -2,8 -2,2 -4,4 -7,5 3,1 6,3 8,6 2,2 3,6 3,10 0,6 -2,10 -6,13 -3,4 -9,5 -15,5l-26 0zm11 -29l0 20 15 0c7,0 10,-3 10,-10 0,-6 -3,-10 -10,-10l-15 0zm0 -9l11 0c8,0 13,-3 13,-9 0,-6 -4,-9 -12,-9l-12 0 0 18zm91 -18l-18 0 0 56 -10 0 0 -56 -18 0 0 -9 46 0 0 9zm7 20c0,-9 2,-17 7,-22 4,-6 10,-8 18,-8 7,0 14,2 18,8 5,5 7,12 7,22l0 7c0,9 -2,17 -7,22 -4,6 -10,8 -18,8 -8,0 -14,-2 -18,-8 -5,-5 -7,-12 -7,-21l0 -8zm10 7c0,6 2,12 4,15 3,4 7,6 11,6 9,0 14,-7 15,-20l0 -8c0,-6 -2,-12 -4,-15 -3,-4 -7,-6 -11,-6 -4,0 -8,2 -11,6 -2,3 -4,9 -4,15l0 7zm86 14l18 -50 13 0 0 65 -11 0 0 -45 -16 45 -7 0 -17 -46 0 46 -11 0 0 -65 14 0 17 50zm82 15c-1,-1 -1,-4 -2,-7 -3,6 -8,8 -14,8 -6,0 -11,-1 -14,-5 -3,-3 -5,-8 -5,-14 0,-6 2,-12 7,-16 4,-3 10,-5 18,-5l8 0 0 -7c0,-4 -1,-7 -2,-9 -2,-1 -5,-2 -8,-2 -4,0 -6,1 -8,3 -2,1 -3,4 -3,7l-11 0c0,-3 1,-7 3,-10 2,-3 5,-5 8,-7 3,-2 7,-2 11,-2 7,0 12,1 15,5 4,3 6,8 6,14l0 33c0,5 1,9 2,13l0 1 -11 0zm-15 -8c3,0 6,-1 8,-2 2,-2 4,-4 5,-6l0 -16 -6 0c-5,1 -9,2 -12,4 -3,2 -4,5 -4,9 0,4 0,7 2,8 1,2 4,3 7,3zm63 0c4,0 6,-1 9,-3 2,-2 3,-5 3,-9l10 0c0,6 -2,11 -6,15 -5,4 -10,6 -16,6 -8,0 -14,-2 -18,-7 -5,-5 -7,-13 -7,-23l0 -7c0,-10 2,-18 7,-23 4,-5 10,-7 18,-7 7,0 12,2 16,6 4,4 6,10 6,17l-10 0c0,-5 -1,-8 -3,-11 -2,-2 -5,-3 -9,-3 -5,0 -8,1 -11,4 -2,4 -3,9 -3,16l0 8c0,8 1,13 3,16 3,4 6,5 11,5zm76 -48l-18 0 0 56 -11 0 0 -56 -17 0 0 -9 46 0 0 9zm30 57c-9,0 -15,-2 -19,-7 -4,-5 -7,-12 -7,-21l0 -8c0,-10 2,-18 7,-23 4,-6 10,-8 17,-8 8,0 14,2 18,7 3,5 5,12 5,23l0 7 -36 0 0 1c0,7 1,12 4,15 2,4 6,5 11,5 3,0 6,0 9,-2 2,-1 4,-3 6,-5l6 7c-5,6 -12,9 -21,9zm-2 -58c-4,0 -7,1 -9,4 -3,3 -4,8 -4,15l26 0 0 -2c-1,-6 -2,-11 -4,-13 -2,-3 -5,-4 -9,-4zm83 28c0,10 -1,18 -5,23 -4,5 -9,7 -16,7 -6,0 -12,-2 -15,-7l0 31 -11 0 0 -90 10 0 0 7c4,-6 9,-8 16,-8 7,0 12,2 16,7 4,5 5,12 5,22l0 8zm-10 -7c0,-7 -1,-12 -4,-16 -2,-3 -5,-5 -10,-5 -6,0 -9,3 -12,8l0 34c3,5 6,7 12,7 5,0 8,-2 10,-5 3,-4 4,-9 4,-16l0 -7zm22 0c0,-9 2,-17 7,-22 5,-6 11,-8 18,-8 8,0 14,2 19,8 4,5 7,12 7,22l0 7c0,9 -3,17 -7,22 -5,6 -11,8 -19,8 -7,0 -13,-2 -18,-8 -4,-5 -7,-12 -7,-21l0 -8zm11 7c0,6 1,12 4,15 2,4 6,6 10,6 10,0 15,-7 15,-20l0 -8c0,-6 -1,-12 -4,-15 -3,-4 -6,-6 -11,-6 -4,0 -8,2 -10,6 -3,3 -4,9 -4,15l0 7zm54 29l0 -65 22 0c8,0 14,1 17,4 4,3 6,8 6,14 0,3 0,5 -2,8 -2,2 -4,4 -7,5 4,1 6,3 8,6 2,2 3,6 3,10 0,6 -2,10 -5,13 -4,4 -9,5 -16,5l-26 0zm11 -29l0 20 15 0c7,0 11,-3 11,-10 0,-6 -4,-10 -11,-10l-15 0zm0 -9l11 0c9,0 13,-3 13,-9 0,-6 -4,-9 -12,-9l-12 0 0 18z"/>
 </g>
</svg>
