<?xml version="1.0" encoding="UTF-8"?>
<!DOCTYPE svg PUBLIC "-//W3C//DTD SVG 1.1//EN" "http://www.w3.org/Graphics/SVG/1.1/DTD/svg11.dtd">
<!-- Creator: CorelDRAW X8 -->
<svg xmlns="http://www.w3.org/2000/svg" xml:space="preserve" width="264.594mm" height="49.2445mm" version="1.1" style="shape-rendering:geometricPrecision; text-rendering:geometricPrecision; image-rendering:optimizeQuality; fill-rule:evenodd; clip-rule:evenodd"
viewBox="0 0 26665 4963"
 xmlns:xlink="http://www.w3.org/1999/xlink">
 <defs>
  <style type="text/css">
   <![CDATA[
    .fil0 {fill:#FEFEFE}
   ]]>
  </style>
 </defs>
 <g id="Слой_x0020_1">
  <metadata id="CorelCorpID_0Corel-Layer"/>
  <path class="fil0" d="M3941 2976l-105 105c-6,6 -10,8 -16,15l-45 45c-44,46 -92,89 -136,136l-45 44c-24,25 -50,54 -75,77 -24,20 -38,38 -61,59l-29 30c-6,5 -10,10 -15,16 -25,26 -52,49 -76,75 -29,32 -61,59 -90,90 -6,7 -9,9 -16,15 -5,6 -9,11 -14,16 -5,6 -10,9 -15,14l-151 152c-17,18 -64,60 -77,76 -23,-5 -43,-13 -71,-18 -74,-12 -156,-1 -224,24 -42,15 -81,36 -114,58l-50 37c-9,7 -14,15 -23,22 -12,10 -13,13 -22,23 -90,91 -153,248 -136,388 3,32 23,118 43,131 7,1 29,-25 35,-30 5,-6 9,-11 14,-16l49 -48c40,-45 103,-100 144,-145 6,-7 10,-9 17,-16 41,-39 74,-90 154,-102 56,-8 106,10 146,44 17,15 32,33 48,49 6,6 11,10 17,16 35,36 51,89 44,142 -11,83 -74,131 -118,173 -27,26 -51,56 -80,80l-65 65c-15,17 -91,86 -94,101 8,9 45,21 61,27 24,7 49,12 76,15 96,10 196,-16 277,-61 38,-21 75,-48 102,-72 119,-107 192,-276 166,-439 -5,-27 -12,-46 -18,-70l134 -134c24,-26 52,-49 76,-75l318 -319c24,-26 52,-49 76,-75 34,-38 107,-109 149,-151 6,-6 11,-9 16,-15 49,-52 101,-100 151,-152l47 -45c23,5 43,13 70,18 119,19 243,-18 340,-83 9,-6 16,-11 24,-18l48 -39c27,-23 77,-91 96,-125 21,-38 39,-81 51,-128 12,-50 16,-107 10,-160 -3,-31 -24,-118 -42,-129 -8,-2 -41,36 -49,44 -6,6 -11,10 -17,16 -5,6 -9,11 -15,16l-96 95c-16,17 -31,34 -48,49l-33 33c-41,39 -74,89 -153,102 -39,7 -75,1 -108,-15 -15,-7 -27,-17 -38,-26l-34 -33c-22,-25 -40,-35 -58,-68 -17,-30 -25,-67 -20,-107 11,-84 65,-118 102,-159l161 -160c11,-12 22,-21 32,-32 13,-15 61,-54 61,-70 -78,-46 -199,-53 -292,-28 -84,22 -162,65 -224,121 -14,13 -27,28 -41,44 -102,113 -154,279 -116,430 3,13 8,24 10,35zm2614 141l-751 0 -146 461 -433 0 736 -2140 440 0 733 2140 -434 0 -145 -461zm-646 -331l540 0 -265 -847 -8 0 -267 847zm2151 223l26 116 9 0 25 -113 466 -1574 452 0 -727 2140 -441 0 -726 -2140 453 0 463 1571zm2667 -1240l-606 0 0 1809 -429 0 0 -1809 -602 0 0 -331 1637 0 0 331zm1911 932c0,262 -82,479 -248,650 -167,171 -383,257 -648,257 -263,0 -477,-86 -642,-257 -164,-171 -247,-388 -247,-650l0 -386c0,-261 82,-478 246,-649 164,-172 378,-258 642,-258 265,0 481,86 648,258 166,171 249,388 249,649l0 386zm-428 -390c0,-167 -42,-304 -125,-412 -84,-106 -198,-160 -344,-160 -146,0 -260,53 -340,160 -80,107 -120,244 -120,412l0 390c0,170 40,308 122,415 81,107 194,161 339,161 147,0 262,-54 344,-161 82,-107 124,-245 124,-415l0 -390zm1193 412l0 855 -429 0 0 -2140 807 0c243,0 435,56 572,167 137,111 207,266 207,465 0,111 -29,206 -87,285 -58,80 -143,144 -254,193 126,37 217,99 272,187 56,87 83,194 83,323l0 157c0,60 8,122 24,187 16,66 44,114 83,145l0 31 -442 0c-39,-31 -65,-84 -76,-157 -12,-74 -18,-143 -18,-209l0 -151c0,-107 -29,-190 -87,-249 -59,-59 -141,-89 -247,-89l-408 0zm0 -331l370 0c120,0 211,-26 270,-76 59,-51 89,-127 89,-226 0,-99 -30,-176 -89,-234 -59,-58 -147,-87 -262,-87l-378 0 0 623zm2876 247l-886 0 0 608 1036 0 0 331 -1466 0 0 -2140 1463 0 0 331 -1033 0 0 539 886 0 0 331zm973 -1201l545 1577 8 0 550 -1577 562 0 0 2140 -429 0 0 -638 41 -945 -9 -2 -574 1585 -287 0 -570 -1579 -9 2 41 939 0 638 -430 0 0 -2140 561 0zm2506 2140l-429 0 0 -376 429 0 0 376zm891 0l-429 0 0 -2140 429 0 0 2140zm2157 0l-427 0 -864 -1462 -9 1 0 1461 -430 0 0 -2140 430 0 864 1461 9 -1 0 -1460 427 0 0 2140zm1727 -888l-896 0 0 888 -430 0 0 -2140 1476 0 0 331 -1046 0 0 590 896 0 0 331zm2132 11c0,262 -82,479 -248,650 -167,171 -383,257 -648,257 -263,0 -478,-86 -642,-257 -165,-171 -247,-388 -247,-650l0 -386c0,-261 82,-478 246,-649 164,-172 378,-258 641,-258 266,0 482,86 649,258 166,171 249,388 249,649l0 386zm-429 -390c0,-167 -41,-304 -124,-412 -84,-106 -199,-160 -345,-160 -146,0 -259,53 -339,160 -80,107 -121,244 -121,412l0 390c0,170 41,308 122,415 82,107 195,161 340,161 147,0 262,-54 344,-161 82,-107 123,-245 123,-415l0 -390zm-23005 837l-899 0 -899 0c-4,47 -1,103 -1,151 0,41 8,105 -13,135 -26,38 -58,38 -114,38 -50,0 -100,0 -149,0 -83,0 -216,25 -222,-78 -3,-64 0,-224 0,-298 0,-62 1,-78 -22,-129 -21,-45 -27,-65 -27,-122 0,-125 -5,-312 18,-433 16,-82 31,-173 41,-257 4,-33 18,-109 -2,-132 -28,-34 -125,-69 -143,-84 -17,-14 -22,-20 -23,-50 -1,-36 -6,-101 46,-104 44,-2 100,2 146,2 12,0 27,-2 37,2 11,5 10,11 26,5 24,-10 42,-76 52,-100 7,-17 15,-34 22,-51 38,-91 43,-84 77,-147 9,-17 17,-31 26,-47 19,-34 39,-62 61,-90 39,-49 38,-42 71,-78 48,-51 132,-91 209,-91 54,0 416,0 783,-1 367,1 729,1 783,1 77,0 161,40 209,91 33,36 31,29 70,78 23,28 43,56 62,90 9,16 17,30 26,47 33,63 39,56 77,147 7,17 15,34 22,51 10,24 28,90 52,100 16,6 14,0 26,-5 10,-4 25,-2 37,-2 46,0 102,-4 146,-2 52,3 47,68 46,104 -1,30 -6,36 -23,50 -18,15 -115,50 -143,84 -20,23 -6,99 -2,132 10,84 25,175 41,257 23,121 18,308 18,433 0,34 -2,55 -8,76l-521 520c-1,-2 -3,-4 -5,-7 -21,-30 -13,-94 -13,-135 0,-48 2,-104 -1,-151zm-899 -3148c1252,0 2273,987 2329,2225 -19,-11 -38,-19 -58,-26 -78,-28 -164,-36 -242,-25 -17,2 -34,6 -52,11 -76,-1026 -932,-1835 -1977,-1835 -1095,0 -1982,887 -1982,1982 0,1037 796,1887 1810,1974 -31,106 -22,244 31,353 -1222,-72 -2191,-1087 -2191,-2327 0,-1288 1044,-2332 2332,-2332zm0 1952l1112 0c21,-3 40,-26 48,-44 19,-46 -5,-110 -19,-152 -16,-46 -35,-88 -54,-132 -49,-117 -58,-127 -146,-221 -27,-28 -65,-54 -119,-65 -40,-8 -136,-3 -183,-3l-639 0 -640 0c-46,0 -142,-5 -182,3 -54,11 -93,37 -119,65 -88,94 -97,104 -147,221 -18,44 -37,86 -53,132 -14,42 -38,106 -19,152 7,18 27,41 48,44l1112 0zm-439 540c1,-35 -24,-184 -40,-205 -22,-29 -59,-22 -102,-22l-500 -1c-56,0 -65,-13 -103,-24 4,53 18,170 35,215 13,37 40,38 85,38 67,0 597,3 625,-1zm878 0c-1,-35 24,-184 40,-205 21,-29 59,-22 102,-22l500 -1c56,0 64,-13 103,-24 -4,53 -19,170 -35,215 -13,37 -40,38 -85,38 -67,0 -598,3 -625,-1z"/>
 </g>
</svg>
